<svg xmlns="http://www.w3.org/2000/svg" viewBox="0 0 4143.68 4127.91" style=""><defs><style>.cls-1{fill:#e62b1e;}.cls-10,.cls-2,.cls-3,.cls-4,.cls-5,.cls-6,.cls-8,.cls-9{fill:none;}.cls-10,.cls-11,.cls-2,.cls-3,.cls-4,.cls-5,.cls-6,.cls-7,.cls-8,.cls-9{stroke:#e62b1e;}.cls-10,.cls-11,.cls-2,.cls-3,.cls-7,.cls-8,.cls-9{stroke-miterlimit:10;}.cls-2,.cls-4{stroke-width:12.84px;}.cls-10,.cls-3,.cls-5,.cls-6,.cls-7{stroke-width:14.98px;}.cls-4,.cls-5,.cls-6{stroke-linejoin:round;}.cls-10,.cls-5{stroke-linecap:round;}.cls-11,.cls-7{fill:red;}.cls-8{stroke-width:17.12px;}.cls-9{stroke-width:21.4px;}.cls-11{stroke-width:10.15px;}</style></defs><title>Logo</title><g id="Layer_2" data-name="Layer 2"><g id="Layer_2-2" data-name="Layer 2"><path class="cls-1 saxnmMvo_0" d="M4143.68,4057.13L2768.16,4057.13L2219.8,3216.01L2258.89,3177.26L2198.89,3045.35L2259.68,3176.47L2397.95,2816.98L2418.72,2795.37L2419.41,2794.67L2419.62,2793.19L2419.64,2792.97L2783.9,2661.51L2786.51,2658.82L2919.67,2245.75L4143.68,4057.13Z"></path><path class="cls-1 saxnmMvo_1" d="M2159.39,1364.75L2136.99,1393.23L2136.69,1393.62L1994.51,1691.29L1828.06,1730.92L1613.64,2088.29L1397.54,2162.56L343.67,588.6L1679.61,588.6L2159.39,1364.75Z"></path><path class="cls-2 saxnmMvo_2" d="M1336.27,3789.86l-2.63-.9-266.91-207.6L631.4,3485l1.85-8.36,429,95L937.79,3180.49l1-4.26,4.22-1.16,647.29,178.62-579.55-433,5.12-6.86,587.68,439.07-221.32-791.65.56-3.52,3-1.88,569-71.91,4.12,1.9.1,4.53-255.18,428.45-87.75,441.4,419.61,57.86,3.38,2.62-.58,4.24-223,288.89-3.67,1.66-3.42-2.13L1610.83,3372l-271,415.9-2.87,1.88-.71.06Zm-259.12-211.24,258.07,200.73,264.93-406.61-523,205.88Zm542-209.33,193.5,334.27,214.62-278-408.12-56.27Zm-670.8-183.87,122.94,386.31,526.27-207.16L948.34,3185.42Zm443.46-621.69,218.54,781.71,85.29-429,.52-1.36,251.06-421.54-555.41,70.19Z"></path><path class="cls-2 saxnmMvo_3" d="M2419.39,2789.32l-3.81-1.84-2.21.38-3,.54-1.56.27-1.09.2-2.74.49-.15,0-168.27,29.89-.94.17-8.77,1.54-.94.17-515.52,91.56-3.25.58-2.63.45-.94.17-2.38.43-3.08,2.44-.11.08,0,.15.35,3.92.08.15.07.11,3.74,5.62,1.84,2.76,321.49,484.19,2.14,3.23.73,1.07,5.24,7.92,2.84,1.52.73.39h.41l3.06-2.27.49-.37,22.49-54.56,18.91-45.94,5.33-12.94,110.3-267.74,14.06-34.11L2398,2817l20.77-21.61.69-.7.21-1.48,0-.21.47-3.3Zm-383,625.21-5.73-8.64L1711,2924.5l-.68-1-1.22-1.85,17.46-3.1,2.57-.45,498.27-88.47,2.39-.43,6.46-1.16,2.38-.42L2398,2799.31l6.14-1.09-189.34,196.83-2.72,2.82-6.46,6.74-.88,1.35L2203,3010l-.34.85-68.53,166.34-77.46,188Z"></path><path class="cls-2 saxnmMvo_4" d="M943.2,3183.93L942.2,3175.43L1303.45,3133.02L1381.38,2558.6L1384.38,2555.07L1388.83,2556.35L1702.05,2913.32L2202.95,3001.32L2228.24,2823.91L1951.49,2491.3L1958.06,2485.82L2236.04,2819.9L2236.98,2823.24L2210.79,3006.91L2209.07,3009.76L2205.82,3010.51L1699.09,2921.49L1696.61,2920.09L1388.6,2569.05L1311.49,3137.46L1307.75,3141.14L943.2,3183.93L943.2,3183.93Z"></path><path class="cls-2 saxnmMvo_5" d="M1955.38,2492.47l-1.63-.32L1485,2299.6l-2.46-2.66.47-3.6,129.86-203.82,3.31-2,3.56,1.49,338.86,396.37.22,5.29-3.47,1.77ZM1493,2293.63l447.6,183.87L1617,2099l-124,194.63Z"></path><path class="cls-2 saxnmMvo_6" d="M2919.18,2237.81h-.24l-4.73-.13-6.61,4.47h0l-351.19,238-5.61,3.81H1955.37l-.21.17-3.87,2.87,1.24,3.46,0,0,.47,1.3.32.22,0,0,3.4,2.22,18.38,12.11,427.73,281.74,2,1.3,1.5,1,1.45,1,4,2.65,2.36.71,1.45-.26.94-.34,3.06-1.11,364.26-131.47,2.61-2.69,133.16-413.07.9-2.78,0,0,.11-.39Zm-139,412.7-1.18,3.66-5.56,2L2422.3,2782.94l-7.53,2.72-2.4-1.59-442.72-291.59h582.46l1.5-.47.45-.15h0l.43-.13,5-3.38,349.22-236.61Z"></path><path class="cls-2 saxnmMvo_7" d="M2418.08,2792.19L2410.3,2788.64L2548.21,2486.42L2551.03,2484.05L2554.64,2484.74L2784.98,2654.05L2779.91,2660.94L2553.81,2494.76L2418.08,2792.19L2418.08,2792.19Z"></path><path class="cls-2 saxnmMvo_8" d="M2206.56,2213.54l-3.08-1.31-.92-4.5,111.31-291.58-318.79-217.64,4.82-7.07,318.88,217.71,343.76-292.62,5-.39,1.92,4.65-113.21,472-2.78,3-345.54,117.44-1.38.23Zm116.12-296.47L2213.8,2202.28l334.69-113.75,109.6-457-335.41,285.51Z"></path><path class="cls-2 saxnmMvo_9" d="M2549.51,2095.23L2316.48,1917.93L2321.66,1911.12L2554.69,2088.42L2549.51,2095.23L2549.51,2095.23Z"></path><path class="cls-2 saxnmMvo_10" d="M1955.38,2492.47l-1.2-.17-3-3.41-124.57-753.54,2.49-4.61,5.09,1.26,357.13,451.1-197.77-486.52.28-3.8,3.2-2.06,651.68-73.37-510-217.53L2142,1392l512.41,218.56L2351,1125.78l-.49-3.46,2.25-2.67L2727.4,938.73l2.79-.33,607.65,131.51,3.37,4-3,4.28-286.89,90.7-3.72-.56L2728.88,947.52l-368.06,177.76,306.95,490.37,642,39.1,3.62,2.48-.47,4.37-259.3,343.92-133.3,237.81-5.36,1.87-358.61-147v390l-2.43,3.86-4.54-.53L2207,2215.14l-248.46,275.92-3.18,1.41Zm254.73-285.84,337.71,272.61V2091.82l1.9-3.55,4-.41,361,148,131.59-234.76.32-.48,254.68-337.79-635.9-38.73-661.84,74.51,206.53,508Zm-372.37-456.34,120.41,728.43L2201,2209.08l-363.22-458.79Zm911.65-799,301.37,208.77,269.53-85.21-570.9-123.56Z"></path><path class="cls-2 saxnmMvo_11" d="M2554.64,2095.27L2549.56,2088.38L2866.48,1854.72L2871.69,1854.82L3052.73,1999.83L3047.38,2006.51L2868.91,1863.56L2554.64,2095.27L2554.64,2095.27Z"></path><path class="cls-2 saxnmMvo_12" d="M2869,1862.44l-3.25-1.5-203.71-238.37-.88-3.89,2.71-2.93L3531.4,1311l4.78,1.39.22,5-223.27,344-1.83,1.57-440.52,199.14-1.76.38Zm-196.4-240.68,197.57,231.18,436.44-197.3,215.76-332.39-849.77,298.51Z"></path><path class="cls-2 saxnmMvo_13" d="M2665.31,1624.07l-1.66-.33-2.6-4.35,63.79-675.48L2557.69,736.25l6.66-5.37,163.3,202.87,99.16-303.67,2.93-2.8,4,.91,504.85,441.62h415.61l3.92,2.56-.77,4.62L3536,1318l-4.43,1.19-480.05-149.42-382.91,452.83-3.27,1.52Zm68.17-680.61-62.62,663.15L3046.79,1162l4.54-1.32,480.17,149.46,212.91-231.8H3336.94l-2.82-1.06L2832.94,638.89l-99.46,304.57Z"></path><path class="cls-3 saxnmMvo_14" d="M3869.3,817.03L3754.15,1074.09L3336.94,1074.09L3869.3,817.03L3869.3,817.03Z"></path><path class="cls-3 saxnmMvo_15" d="M3423.38,924.93L3866.43,388.22L4031.04,388.22L4022.59,618.5L3423.38,924.93L3423.38,924.93Z"></path><path class="cls-3 saxnmMvo_16" d="M3423.38,924.93L4031.04,388.22"></path><path class="cls-3 saxnmMvo_17" d="M2906.91,593.9L2695.24,370.22L2695.24,316.14L2781.9,316.14L2906.91,593.9L2906.91,593.9Z"></path><path class="cls-3 saxnmMvo_18" d="M2695.24,316.14L2906.91,593.9"></path><path class="cls-2 saxnmMvo_19" d="M3939.78,797.46L4078.48,666.21L4112.01,666.21L4112.01,719.95L3939.78,797.46L3939.78,797.46Z"></path><path class="cls-2 saxnmMvo_20" d="M4112.01,666.21L3939.78,797.46"></path><path class="cls-4 saxnmMvo_21" d="M2829.12,627.89l-133.26-38.82-2.08-.47-131.85-30-5.2-1.15V732.5l-205.68,388.67-191.66,243.58-22.4,28.48-.3.39-142.18,297.67-166.45,39.63-214.42,357.37-216.1,74.27-43.12,14.83,127.23,119.41-5.12,13.5-93.39,246.24-.45,1.16-1.37,1.3-226.49,216.86-144.49,138.33-.86.81-32.07,117.6L938,3176.94,753.23,3357,629.34,3477.74l-.4.39L414.6,3835.33l-213.94,218.8,6.12,6,206.63-211.34,7-7.19,647.17-259.2,266.5,206.69-16.95,268.05,0,.85,8.53.47.07-1.32,11.81-260.45L1563,4057.13l67.14,64.36L1779.62,3793l36.18-79.51,3.51-7.7-14,2.18-460.23,71.91-12.9,2-.32,5.71-1.88-6.11-198.57-149.79-61.86-59.29-15.42,6.18L428.23,3829.27l8.8-14.66,197.36-329,1.31-2.17,5.26-5.13,87-84.78,211.9-206.45,3.31-3.23,1.65-1.61.86-.81,1.43-5.24.39-1.42,44.57-163.43,23.68-86.91,1.35-4.92,2.78-2.68,110.75-106,248.83-238.25,4.66-4.45,5.16-4.95.7-.66,1.29-3.38,1.58-4.19,96.22-253.69,2.57-6.78-5.86-5.5-9.7-9.11-105.46-99,31.84-10.93,203.82-70.07,13.08-4.5,2.39-4,206.72-344.53,5.07-8.45,4.77-1.14L1994.92,1700l1.73-.41,3.83-.92,2.46-5.13,1.73-3.66,137.78-288.43,1.56-3.28,3.17-4,17-21.63,187.58-238.38,2.48-3.19,3.77-4.77.24-.3,6.29-11.88,2-3.76,195.22-368.91L2564,737l4-1.54,39.37-15,216.8-82.49,9.82-3.74,1-4.69ZM1805,3716.68l-57.73,126.84L1627.34,4107l-52-49.83-234.71-267-.27-.89ZM2614.51,709.05l-49.22,18.44V568.06l118.43,29,138.87,34Z"></path><path class="cls-5 saxnmMvo_22" d="M2510.57,455.02L2545.75,514.39L2686.48,550.67L2572.37,455.02L2510.57,455.02L2510.57,455.02Z"></path><path class="cls-5 saxnmMvo_23" d="M2510.57,455.02L2686.48,550.67"></path><path class="cls-3 saxnmMvo_24" d="M3604.72,579.83L3691.82,227.92L3777.84,234.45L3798.49,281.54L3604.72,579.83L3604.72,579.83Z"></path><path class="cls-3 saxnmMvo_25" d="M3777.84,234.45L3604.71,579.83"></path><path class="cls-3 saxnmMvo_26" d="M3867.87,297.85L3910.42,195.99L3933.96,209.61L3931.01,239.31L3867.87,297.85L3867.87,297.85Z"></path><path class="cls-3 saxnmMvo_27" d="M4097.39,401.48L4095.98,366.41L4104.59,367.18L4107.73,376.13L4097.39,401.48L4097.39,401.48Z"></path><path class="cls-6 saxnmMvo_28" d="M3374.66,784.8L3343.26,712.34L3345.92,167.15L3399.74,230.01L3374.66,784.8L3374.66,784.8Z"></path><path class="cls-6 saxnmMvo_29" d="M3374.66,784.8L3429.41,753.25L3579.47,239.87L3475.37,161.01L3345.92,167.15"></path><path class="cls-6 saxnmMvo_30" d="M3399.74,230.01L3579.47,239.87"></path><path class="cls-3 saxnmMvo_31" d="M3162.41,73.55L3202.89,113.06L3269.99,309.6L3228.07,352.56L3203.63,349.67L3132.28,104.42L3162.41,73.55L3162.41,73.55Z"></path><path class="cls-3 saxnmMvo_32" d="M3228.07,352.56L3162.41,73.55"></path><path class="cls-4 saxnmMvo_33" d="M3331.26,1012.18L3286.87,897.48L3146.57,844.71L3331.26,1012.18L3331.26,1012.18Z"></path><path class="cls-7 saxnmMvo_34" d="M2982.52,521.93L2980.7,582.17L3046.5,679.98L2982.52,521.93L2982.52,521.93Z"></path><path class="cls-3 saxnmMvo_35" d="M3059.1,531.06L3281.69,827.26L3228.07,588.6L3049.86,374.65L3059.1,531.06L3059.1,531.06Z"></path><path class="cls-3 saxnmMvo_36" d="M3049.86,374.65L3281.69,827.26"></path><path class="cls-8 saxnmMvo_37" d="M418.02,3837.97L762.56,3808.3L536.04,4046.11"></path><path class="cls-4 saxnmMvo_38" d="M711.69,4118.51l-1.32-.21h0l-.21-.07-174.82-67.8-331.45,11-.28-8.56,332.32-11,1.69.29,170.75,66.21,50-300.73,1.64-2.71L1066,3574h0l2.79-.86,3.57,2.29,252.81,480.82,0,4-3.37,2.22-609.66,56-.44,0Zm356.47-532.74-348,523.38,594.42-54.61-246.47-468.77ZM766.5,3810.69l-47.31,284.53,331.94-499.29L766.5,3810.69Z"></path><path class="cls-2 saxnmMvo_39" d="M1627.96,4118.44L1320.63,4062.42L1322.16,4054L1629.49,4110.02L1627.96,4118.44L1627.96,4118.44Z"></path><path class="cls-2 saxnmMvo_40" d="M1338.43,3786.18L1330.1,3784.25L1409.11,3443.59L940.62,3183.42L944.78,3175.94L1416.09,3437.68L1418.18,3442.38L1338.43,3786.18L1338.43,3786.18Z"></path><path class="cls-3 saxnmMvo_41" d="M2831.73,66.81L2860.93,58.29L2861.55,18.3L2780.67,9.19L2808.29,52.84L2831.73,66.81Z"></path><path class="cls-3 saxnmMvo_42" d="M2868.57,313.82L2989.72,114.76L2810.63,175.93L2868.57,313.82Z"></path><path class="cls-9 saxnmMvo_43" d="M2256.75,3179.4L2217.66,3218.15L2061.61,3372.83L2056.09,3378.29L2194.01,3041.48L2194.76,3043.13L2196.15,3046.19L2196.15,3046.21L2196.75,3047.49L2256.75,3179.4Z"></path><path class="cls-9 saxnmMvo_44" d="M2407.32,2797.75L2406.7,2799.37L2405.67,2802.03L2398.05,2821.82L2395.81,2827.68L2257.54,3187.17L2196.75,3056.05L2196.15,3054.77L2196.15,3054.74L2208.03,3019.48L2208.07,3019.38L2208.65,3017.6L2212.65,3005.75L2395.85,2810.01L2404.22,2801.06L2405.61,2799.57L2407.32,2797.75Z"></path><path class="cls-10 saxnmMvo_45" d="M12.61,4102.25L81.47,4097.61L177.3,3988.36L40.48,4047.09L12.61,4102.25L12.61,4102.25Z"></path><path class="cls-11 saxnmMvo_46" d="M345.06,3812.55L376,3785.88L394.76,3708.2L345.06,3812.55L345.06,3812.55Z"></path><path class="cls-3 saxnmMvo_47" d="M44.45,3975.3L122.9,3945.44L63.24,3902.31L44.45,3975.3Z"></path><path class="cls-2 saxnmMvo_48" d="M164.35,3896.65L260.95,3818.92L270.42,3901.73L164.35,3896.65L164.35,3896.65Z"></path></g></g><style data-made-with="vivus-instant">.saxnmMvo_0{stroke-dasharray:6154 6156;stroke-dashoffset:6155;animation:saxnmMvo_draw_0 4400ms linear 0ms infinite,saxnmMvo_fade 4400ms linear 0ms infinite;}.saxnmMvo_1{stroke-dasharray:5326 5328;stroke-dashoffset:5327;animation:saxnmMvo_draw_1 4400ms linear 0ms infinite,saxnmMvo_fade 4400ms linear 0ms infinite;}.saxnmMvo_2{stroke-dasharray:14321 14323;stroke-dashoffset:14322;animation:saxnmMvo_draw_2 4400ms linear 0ms infinite,saxnmMvo_fade 4400ms linear 0ms infinite;}.saxnmMvo_3{stroke-dasharray:4135 4137;stroke-dashoffset:4136;animation:saxnmMvo_draw_3 4400ms linear 0ms infinite,saxnmMvo_fade 4400ms linear 0ms infinite;}.saxnmMvo_4{stroke-dasharray:5126 5128;stroke-dashoffset:5127;animation:saxnmMvo_draw_4 4400ms linear 0ms infinite,saxnmMvo_fade 4400ms linear 0ms infinite;}.saxnmMvo_5{stroke-dasharray:2509 2511;stroke-dashoffset:2510;animation:saxnmMvo_draw_5 4400ms linear 0ms infinite,saxnmMvo_fade 4400ms linear 0ms infinite;}.saxnmMvo_6{stroke-dasharray:4797 4799;stroke-dashoffset:4798;animation:saxnmMvo_draw_6 4400ms linear 0ms infinite,saxnmMvo_fade 4400ms linear 0ms infinite;}.saxnmMvo_7{stroke-dasharray:1251 1253;stroke-dashoffset:1252;animation:saxnmMvo_draw_7 4400ms linear 0ms infinite,saxnmMvo_fade 4400ms linear 0ms infinite;}.saxnmMvo_8{stroke-dasharray:3988 3990;stroke-dashoffset:3989;animation:saxnmMvo_draw_8 4400ms linear 0ms infinite,saxnmMvo_fade 4400ms linear 0ms infinite;}.saxnmMvo_9{stroke-dasharray:603 605;stroke-dashoffset:604;animation:saxnmMvo_draw_9 4400ms linear 0ms infinite,saxnmMvo_fade 4400ms linear 0ms infinite;}.saxnmMvo_10{stroke-dasharray:16620 16622;stroke-dashoffset:16621;animation:saxnmMvo_draw_10 4400ms linear 0ms infinite,saxnmMvo_fade 4400ms linear 0ms infinite;}.saxnmMvo_11{stroke-dasharray:1268 1270;stroke-dashoffset:1269;animation:saxnmMvo_draw_11 4400ms linear 0ms infinite,saxnmMvo_fade 4400ms linear 0ms infinite;}.saxnmMvo_12{stroke-dasharray:4233 4235;stroke-dashoffset:4234;animation:saxnmMvo_draw_12 4400ms linear 0ms infinite,saxnmMvo_fade 4400ms linear 0ms infinite;}.saxnmMvo_13{stroke-dasharray:7543 7545;stroke-dashoffset:7544;animation:saxnmMvo_draw_13 4400ms linear 0ms infinite,saxnmMvo_fade 4400ms linear 0ms infinite;}.saxnmMvo_14{stroke-dasharray:1291 1293;stroke-dashoffset:1292;animation:saxnmMvo_draw_14 4400ms linear 0ms infinite,saxnmMvo_fade 4400ms linear 0ms infinite;}.saxnmMvo_15{stroke-dasharray:1765 1767;stroke-dashoffset:1766;animation:saxnmMvo_draw_15 4400ms linear 0ms infinite,saxnmMvo_fade 4400ms linear 0ms infinite;}.saxnmMvo_16{stroke-dasharray:811 813;stroke-dashoffset:812;animation:saxnmMvo_draw_16 4400ms linear 0ms infinite,saxnmMvo_fade 4400ms linear 0ms infinite;}.saxnmMvo_17{stroke-dasharray:754 756;stroke-dashoffset:755;animation:saxnmMvo_draw_17 4400ms linear 0ms infinite,saxnmMvo_fade 4400ms linear 0ms infinite;}.saxnmMvo_18{stroke-dasharray:350 352;stroke-dashoffset:351;animation:saxnmMvo_draw_18 4400ms linear 0ms infinite,saxnmMvo_fade 4400ms linear 0ms infinite;}.saxnmMvo_19{stroke-dasharray:468 470;stroke-dashoffset:469;animation:saxnmMvo_draw_19 4400ms linear 0ms infinite,saxnmMvo_fade 4400ms linear 0ms infinite;}.saxnmMvo_20{stroke-dasharray:217 219;stroke-dashoffset:218;animation:saxnmMvo_draw_20 4400ms linear 0ms infinite,saxnmMvo_fade 4400ms linear 0ms infinite;}.saxnmMvo_21{stroke-dasharray:15518 15520;stroke-dashoffset:15519;animation:saxnmMvo_draw_21 4400ms linear 0ms infinite,saxnmMvo_fade 4400ms linear 0ms infinite;}.saxnmMvo_22{stroke-dasharray:426 428;stroke-dashoffset:427;animation:saxnmMvo_draw_22 4400ms linear 0ms infinite,saxnmMvo_fade 4400ms linear 0ms infinite;}.saxnmMvo_23{stroke-dasharray:201 203;stroke-dashoffset:202;animation:saxnmMvo_draw_23 4400ms linear 0ms infinite,saxnmMvo_fade 4400ms linear 0ms infinite;}.saxnmMvo_24{stroke-dasharray:856 858;stroke-dashoffset:857;animation:saxnmMvo_draw_24 4400ms linear 0ms infinite,saxnmMvo_fade 4400ms linear 0ms infinite;}.saxnmMvo_25{stroke-dasharray:387 389;stroke-dashoffset:388;animation:saxnmMvo_draw_25 4400ms linear 0ms infinite,saxnmMvo_fade 4400ms linear 0ms infinite;}.saxnmMvo_26{stroke-dasharray:254 256;stroke-dashoffset:255;animation:saxnmMvo_draw_26 4400ms linear 0ms infinite,saxnmMvo_fade 4400ms linear 0ms infinite;}.saxnmMvo_27{stroke-dasharray:81 83;stroke-dashoffset:82;animation:saxnmMvo_draw_27 4400ms linear 0ms infinite,saxnmMvo_fade 4400ms linear 0ms infinite;}.saxnmMvo_28{stroke-dasharray:1263 1265;stroke-dashoffset:1264;animation:saxnmMvo_draw_28 4400ms linear 0ms infinite,saxnmMvo_fade 4400ms linear 0ms infinite;}.saxnmMvo_29{stroke-dasharray:859 861;stroke-dashoffset:860;animation:saxnmMvo_draw_29 4400ms linear 0ms infinite,saxnmMvo_fade 4400ms linear 0ms infinite;}.saxnmMvo_30{stroke-dasharray:181 183;stroke-dashoffset:182;animation:saxnmMvo_draw_30 4400ms linear 0ms infinite,saxnmMvo_fade 4400ms linear 0ms infinite;}.saxnmMvo_31{stroke-dasharray:648 650;stroke-dashoffset:649;animation:saxnmMvo_draw_31 4400ms linear 0ms infinite,saxnmMvo_fade 4400ms linear 0ms infinite;}.saxnmMvo_32{stroke-dasharray:287 289;stroke-dashoffset:288;animation:saxnmMvo_draw_32 4400ms linear 0ms infinite,saxnmMvo_fade 4400ms linear 0ms infinite;}.saxnmMvo_33{stroke-dasharray:523 525;stroke-dashoffset:524;animation:saxnmMvo_draw_33 4400ms linear 0ms infinite,saxnmMvo_fade 4400ms linear 0ms infinite;}.saxnmMvo_34{stroke-dasharray:349 351;stroke-dashoffset:350;animation:saxnmMvo_draw_34 4400ms linear 0ms infinite,saxnmMvo_fade 4400ms linear 0ms infinite;}.saxnmMvo_35{stroke-dasharray:1051 1053;stroke-dashoffset:1052;animation:saxnmMvo_draw_35 4400ms linear 0ms infinite,saxnmMvo_fade 4400ms linear 0ms infinite;}.saxnmMvo_36{stroke-dasharray:509 511;stroke-dashoffset:510;animation:saxnmMvo_draw_36 4400ms linear 0ms infinite,saxnmMvo_fade 4400ms linear 0ms infinite;}.saxnmMvo_37{stroke-dasharray:675 677;stroke-dashoffset:676;animation:saxnmMvo_draw_37 4400ms linear 0ms infinite,saxnmMvo_fade 4400ms linear 0ms infinite;}.saxnmMvo_38{stroke-dasharray:5909 5911;stroke-dashoffset:5910;animation:saxnmMvo_draw_38 4400ms linear 0ms infinite,saxnmMvo_fade 4400ms linear 0ms infinite;}.saxnmMvo_39{stroke-dasharray:642 644;stroke-dashoffset:643;animation:saxnmMvo_draw_39 4400ms linear 0ms infinite,saxnmMvo_fade 4400ms linear 0ms infinite;}.saxnmMvo_40{stroke-dasharray:1800 1802;stroke-dashoffset:1801;animation:saxnmMvo_draw_40 4400ms linear 0ms infinite,saxnmMvo_fade 4400ms linear 0ms infinite;}.saxnmMvo_41{stroke-dasharray:231 233;stroke-dashoffset:232;animation:saxnmMvo_draw_41 4400ms linear 0ms infinite,saxnmMvo_fade 4400ms linear 0ms infinite;}.saxnmMvo_42{stroke-dasharray:572 574;stroke-dashoffset:573;animation:saxnmMvo_draw_42 4400ms linear 0ms infinite,saxnmMvo_fade 4400ms linear 0ms infinite;}.saxnmMvo_43{stroke-dasharray:799 801;stroke-dashoffset:800;animation:saxnmMvo_draw_43 4400ms linear 0ms infinite,saxnmMvo_fade 4400ms linear 0ms infinite;}.saxnmMvo_44{stroke-dasharray:900 902;stroke-dashoffset:901;animation:saxnmMvo_draw_44 4400ms linear 0ms infinite,saxnmMvo_fade 4400ms linear 0ms infinite;}.saxnmMvo_45{stroke-dasharray:426 428;stroke-dashoffset:427;animation:saxnmMvo_draw_45 4400ms linear 0ms infinite,saxnmMvo_fade 4400ms linear 0ms infinite;}.saxnmMvo_46{stroke-dasharray:237 239;stroke-dashoffset:238;animation:saxnmMvo_draw_46 4400ms linear 0ms infinite,saxnmMvo_fade 4400ms linear 0ms infinite;}.saxnmMvo_47{stroke-dasharray:233 235;stroke-dashoffset:234;animation:saxnmMvo_draw_47 4400ms linear 0ms infinite,saxnmMvo_fade 4400ms linear 0ms infinite;}.saxnmMvo_48{stroke-dasharray:314 316;stroke-dashoffset:315;animation:saxnmMvo_draw_48 4400ms linear 0ms infinite,saxnmMvo_fade 4400ms linear 0ms infinite;}@keyframes saxnmMvo_draw{100%{stroke-dashoffset:0;}}@keyframes saxnmMvo_fade{0%{stroke-opacity:1;}90.9090909090909%{stroke-opacity:1;}100%{stroke-opacity:0;}}@keyframes saxnmMvo_draw_0{0%{stroke-dashoffset: 6155}30.303030303030305%{ stroke-dashoffset: 0;}100%{ stroke-dashoffset: 0;}}@keyframes saxnmMvo_draw_1{0.31565656565656564%{stroke-dashoffset: 5327}30.618686868686872%{ stroke-dashoffset: 0;}100%{ stroke-dashoffset: 0;}}@keyframes saxnmMvo_draw_2{0.6313131313131313%{stroke-dashoffset: 14322}30.934343434343436%{ stroke-dashoffset: 0;}100%{ stroke-dashoffset: 0;}}@keyframes saxnmMvo_draw_3{0.946969696969697%{stroke-dashoffset: 4136}31.250000000000007%{ stroke-dashoffset: 0;}100%{ stroke-dashoffset: 0;}}@keyframes saxnmMvo_draw_4{1.2626262626262625%{stroke-dashoffset: 5127}31.565656565656568%{ stroke-dashoffset: 0;}100%{ stroke-dashoffset: 0;}}@keyframes saxnmMvo_draw_5{1.5782828282828283%{stroke-dashoffset: 2510}31.88131313131313%{ stroke-dashoffset: 0;}100%{ stroke-dashoffset: 0;}}@keyframes saxnmMvo_draw_6{1.893939393939394%{stroke-dashoffset: 4798}32.196969696969695%{ stroke-dashoffset: 0;}100%{ stroke-dashoffset: 0;}}@keyframes saxnmMvo_draw_7{2.2095959595959593%{stroke-dashoffset: 1252}32.51262626262626%{ stroke-dashoffset: 0;}100%{ stroke-dashoffset: 0;}}@keyframes saxnmMvo_draw_8{2.525252525252525%{stroke-dashoffset: 3989}32.82828282828283%{ stroke-dashoffset: 0;}100%{ stroke-dashoffset: 0;}}@keyframes saxnmMvo_draw_9{2.8409090909090904%{stroke-dashoffset: 604}33.1439393939394%{ stroke-dashoffset: 0;}100%{ stroke-dashoffset: 0;}}@keyframes saxnmMvo_draw_10{3.1565656565656566%{stroke-dashoffset: 16621}33.45959595959596%{ stroke-dashoffset: 0;}100%{ stroke-dashoffset: 0;}}@keyframes saxnmMvo_draw_11{3.4722222222222223%{stroke-dashoffset: 1269}33.77525252525253%{ stroke-dashoffset: 0;}100%{ stroke-dashoffset: 0;}}@keyframes saxnmMvo_draw_12{3.787878787878788%{stroke-dashoffset: 4234}34.09090909090909%{ stroke-dashoffset: 0;}100%{ stroke-dashoffset: 0;}}@keyframes saxnmMvo_draw_13{4.103535353535354%{stroke-dashoffset: 7544}34.40656565656566%{ stroke-dashoffset: 0;}100%{ stroke-dashoffset: 0;}}@keyframes saxnmMvo_draw_14{4.419191919191919%{stroke-dashoffset: 1292}34.72222222222222%{ stroke-dashoffset: 0;}100%{ stroke-dashoffset: 0;}}@keyframes saxnmMvo_draw_15{4.734848484848484%{stroke-dashoffset: 1766}35.03787878787879%{ stroke-dashoffset: 0;}100%{ stroke-dashoffset: 0;}}@keyframes saxnmMvo_draw_16{5.05050505050505%{stroke-dashoffset: 812}35.35353535353536%{ stroke-dashoffset: 0;}100%{ stroke-dashoffset: 0;}}@keyframes saxnmMvo_draw_17{5.366161616161615%{stroke-dashoffset: 755}35.669191919191924%{ stroke-dashoffset: 0;}100%{ stroke-dashoffset: 0;}}@keyframes saxnmMvo_draw_18{5.681818181818181%{stroke-dashoffset: 351}35.984848484848484%{ stroke-dashoffset: 0;}100%{ stroke-dashoffset: 0;}}@keyframes saxnmMvo_draw_19{5.9974747474747465%{stroke-dashoffset: 469}36.30050505050505%{ stroke-dashoffset: 0;}100%{ stroke-dashoffset: 0;}}@keyframes saxnmMvo_draw_20{6.313131313131313%{stroke-dashoffset: 218}36.61616161616162%{ stroke-dashoffset: 0;}100%{ stroke-dashoffset: 0;}}@keyframes saxnmMvo_draw_21{6.628787878787879%{stroke-dashoffset: 15519}36.93181818181818%{ stroke-dashoffset: 0;}100%{ stroke-dashoffset: 0;}}@keyframes saxnmMvo_draw_22{6.944444444444445%{stroke-dashoffset: 427}37.247474747474755%{ stroke-dashoffset: 0;}100%{ stroke-dashoffset: 0;}}@keyframes saxnmMvo_draw_23{7.2601010101010095%{stroke-dashoffset: 202}37.563131313131315%{ stroke-dashoffset: 0;}100%{ stroke-dashoffset: 0;}}@keyframes saxnmMvo_draw_24{7.575757575757576%{stroke-dashoffset: 857}37.878787878787875%{ stroke-dashoffset: 0;}100%{ stroke-dashoffset: 0;}}@keyframes saxnmMvo_draw_25{7.891414141414141%{stroke-dashoffset: 388}38.19444444444445%{ stroke-dashoffset: 0;}100%{ stroke-dashoffset: 0;}}@keyframes saxnmMvo_draw_26{8.207070707070708%{stroke-dashoffset: 255}38.51010101010101%{ stroke-dashoffset: 0;}100%{ stroke-dashoffset: 0;}}@keyframes saxnmMvo_draw_27{8.522727272727272%{stroke-dashoffset: 82}38.82575757575758%{ stroke-dashoffset: 0;}100%{ stroke-dashoffset: 0;}}@keyframes saxnmMvo_draw_28{8.838383838383837%{stroke-dashoffset: 1264}39.141414141414145%{ stroke-dashoffset: 0;}100%{ stroke-dashoffset: 0;}}@keyframes saxnmMvo_draw_29{9.154040404040401%{stroke-dashoffset: 860}39.45707070707071%{ stroke-dashoffset: 0;}100%{ stroke-dashoffset: 0;}}@keyframes saxnmMvo_draw_30{9.469696969696969%{stroke-dashoffset: 182}39.77272727272727%{ stroke-dashoffset: 0;}100%{ stroke-dashoffset: 0;}}@keyframes saxnmMvo_draw_31{9.785353535353533%{stroke-dashoffset: 649}40.08838383838384%{ stroke-dashoffset: 0;}100%{ stroke-dashoffset: 0;}}@keyframes saxnmMvo_draw_32{10.1010101010101%{stroke-dashoffset: 288}40.4040404040404%{ stroke-dashoffset: 0;}100%{ stroke-dashoffset: 0;}}@keyframes saxnmMvo_draw_33{10.416666666666666%{stroke-dashoffset: 524}40.71969696969697%{ stroke-dashoffset: 0;}100%{ stroke-dashoffset: 0;}}@keyframes saxnmMvo_draw_34{10.73232323232323%{stroke-dashoffset: 350}41.035353535353536%{ stroke-dashoffset: 0;}100%{ stroke-dashoffset: 0;}}@keyframes saxnmMvo_draw_35{11.047979797979798%{stroke-dashoffset: 1052}41.351010101010104%{ stroke-dashoffset: 0;}100%{ stroke-dashoffset: 0;}}@keyframes saxnmMvo_draw_36{11.363636363636362%{stroke-dashoffset: 510}41.66666666666667%{ stroke-dashoffset: 0;}100%{ stroke-dashoffset: 0;}}@keyframes saxnmMvo_draw_37{11.679292929292927%{stroke-dashoffset: 676}41.98232323232323%{ stroke-dashoffset: 0;}100%{ stroke-dashoffset: 0;}}@keyframes saxnmMvo_draw_38{11.994949494949493%{stroke-dashoffset: 5910}42.2979797979798%{ stroke-dashoffset: 0;}100%{ stroke-dashoffset: 0;}}@keyframes saxnmMvo_draw_39{12.310606060606059%{stroke-dashoffset: 643}42.61363636363637%{ stroke-dashoffset: 0;}100%{ stroke-dashoffset: 0;}}@keyframes saxnmMvo_draw_40{12.626262626262626%{stroke-dashoffset: 1801}42.929292929292934%{ stroke-dashoffset: 0;}100%{ stroke-dashoffset: 0;}}@keyframes saxnmMvo_draw_41{12.94191919191919%{stroke-dashoffset: 232}43.244949494949495%{ stroke-dashoffset: 0;}100%{ stroke-dashoffset: 0;}}@keyframes saxnmMvo_draw_42{13.257575757575758%{stroke-dashoffset: 573}43.56060606060606%{ stroke-dashoffset: 0;}100%{ stroke-dashoffset: 0;}}@keyframes saxnmMvo_draw_43{13.573232323232324%{stroke-dashoffset: 800}43.87626262626263%{ stroke-dashoffset: 0;}100%{ stroke-dashoffset: 0;}}@keyframes saxnmMvo_draw_44{13.88888888888889%{stroke-dashoffset: 901}44.19191919191919%{ stroke-dashoffset: 0;}100%{ stroke-dashoffset: 0;}}@keyframes saxnmMvo_draw_45{14.204545454545453%{stroke-dashoffset: 427}44.507575757575765%{ stroke-dashoffset: 0;}100%{ stroke-dashoffset: 0;}}@keyframes saxnmMvo_draw_46{14.520202020202019%{stroke-dashoffset: 238}44.82323232323232%{ stroke-dashoffset: 0;}100%{ stroke-dashoffset: 0;}}@keyframes saxnmMvo_draw_47{14.835858585858585%{stroke-dashoffset: 234}45.13888888888889%{ stroke-dashoffset: 0;}100%{ stroke-dashoffset: 0;}}@keyframes saxnmMvo_draw_48{15.151515151515152%{stroke-dashoffset: 315}45.45454545454545%{ stroke-dashoffset: 0;}100%{ stroke-dashoffset: 0;}}</style></svg>