<svg xmlns="http://www.w3.org/2000/svg" viewBox="0 0 10053.13 10014.87"><defs><style>.cls-1{fill:#e62b1e;}.cls-10,.cls-2,.cls-3,.cls-4,.cls-5,.cls-6,.cls-8,.cls-9{fill:none;}.cls-10,.cls-11,.cls-2,.cls-3,.cls-4,.cls-5,.cls-6,.cls-7,.cls-8,.cls-9{stroke:#e62b1e;}.cls-10,.cls-11,.cls-2,.cls-3,.cls-7,.cls-8,.cls-9{stroke-miterlimit:10;}.cls-2,.cls-4{stroke-width:31.15px;}.cls-10,.cls-3,.cls-5,.cls-6,.cls-7{stroke-width:36.34px;}.cls-4,.cls-5,.cls-6{stroke-linejoin:round;}.cls-10,.cls-5{stroke-linecap:round;}.cls-11,.cls-7{fill:red;}.cls-8{stroke-width:41.53px;}.cls-9{stroke-width:51.91px;}.cls-11{stroke-width:24.63px;}</style></defs><title>Asset 1</title><g id="Layer_2" data-name="Layer 2"><g id="Layer_2-2" data-name="Layer 2"><polygon class="cls-1" points="10053.13 9843.15 6715.93 9843.15 5385.53 7802.49 5480.37 7708.48 5334.81 7388.44 5482.3 7706.56 5817.75 6834.39 5868.16 6781.96 5869.82 6780.24 5870.34 6776.66 5870.39 6776.14 6754.14 6457.2 6760.47 6450.65 7083.52 5448.5 10053.13 9843.15"/><polygon class="cls-1" points="5238.98 3311.08 5184.63 3380.18 5183.91 3381.11 4838.95 4103.31 4435.13 4199.45 3914.92 5066.48 3390.61 5246.66 833.8 1428.03 4074.97 1428.03 5238.98 3311.08"/><path class="cls-2" d="M3242,9194.72l-6.37-2.19L2588,8688.87,1531.85,8455l4.49-20.27L2577.2,8665.2l-302-948.89,2.41-10.34,10.25-2.81L3858.25,8136.5,2452.19,7086l12.43-16.63L3890.41,8134.61,3353.45,6214l1.35-8.54,7.35-4.56,1380.56-174.48,10,4.62.24,11L4133.86,7081.48,3921,8152.39l1018,140.37,8.19,6.36-1.39,10.27-541.09,700.9-8.9,4-8.3-5.16L3908.09,8181,3250.67,9190l-7,4.58-1.72.14Zm-628.66-512.5,626.13,487,642.73-986.47L2613.31,8682.22Zm1314.94-507.86,469.47,811,520.68-674.47-990.15-136.53ZM2300.8,7728.27l298.28,937.24,1276.79-502.6L2300.8,7728.27ZM3376.69,6220l530.22,1896.55,206.93-1040.83,1.26-3.29,609.11-1022.73L3376.69,6220Z"/><path class="cls-2" d="M5869.77,6767.27l-9.25-4.47-5.34.93L5848,6765l-3.79.68-2.64.47-6.65,1.19-.36.05-408.24,72.52-2.28.42-21.29,3.73-2.28.42L4149.72,7066.64l-7.89,1.4-6.39,1.09-2.28.42-5.76,1-7.48,5.91-.26.21.05.37.84,9.5.2.36.16.26,9.08,13.65,4.47,6.7,780,1174.71,5.19,7.84,1.77,2.59,12.72,19.21,6.9,3.69,1.76.93h1l7.43-5.5,1.19-.88,54.56-132.38,45.89-111.45,12.92-31.41,267.61-649.57,34.11-82.75,450.28-468.19,50.41-52.43,1.66-1.72.52-3.58.05-.52,1.14-8ZM4940.6,8284.13l-13.92-21L4151.22,7095.24l-1.66-2.49-3-4.46,42.35-7.53,6.23-1.09L5404.07,6865l5.81-1,15.67-2.81,5.77-1,386.53-68.63,14.9-2.65L5373.38,7266.4l-6.59,6.85-15.68,16.35-2.12,3.27-4.1,9.87-.84,2.07-166.27,403.57-187.92,456.14Z"/><polygon class="cls-2" points="2288.33 7724.66 2285.91 7704.03 3162.36 7601.14 3351.41 6207.51 3358.7 6198.96 3369.5 6202.06 4129.41 7068.11 5344.65 7281.62 5406.02 6851.2 4734.57 6044.23 4750.53 6030.95 5424.93 6841.46 5427.23 6849.56 5363.69 7295.16 5359.51 7302.1 5351.62 7303.92 4122.23 7087.93 4116.22 7084.55 3368.92 6232.88 3181.85 7611.91 3172.78 7620.83 2288.33 7724.66 2288.33 7724.66"/><path class="cls-2" d="M4744,6047.08l-3.94-.78L3602.88,5579.15l-6-6.47,1.14-8.71,315.06-494.5,8-4.78,8.62,3.61L4751.91,6030l.52,12.83-8.42,4.3ZM3622.25,5564.66l1085.93,446.09-785.07-918.29-300.86,472.2Z"/><path class="cls-2" d="M7082.32,5429.24h-.57l-11.47-.31-16,10.85h-.06l-852,577.31-13.61,9.24H4744l-.52.41-9.4,7,3,8.41,0,.1,1.15,3.17.77.52.06.05,8.25,5.4,44.59,29.38,1037.72,683.52,4.83,3.17,3.63,2.39,3.53,2.34,9.76,6.43,5.71,1.72,3.53-.63,2.29-.83,7.42-2.7,883.75-318.94,6.33-6.54L7083.52,5448.5l2.18-6.75.05-.1.26-.94ZM6745.1,6430.51l-2.85,8.88-13.5,4.88L5876.83,6751.8l-18.28,6.59-5.81-3.84L4778.63,6047.09H6191.77l3.64-1.14,1.09-.36h.05l1-.31,12.15-8.21L7057,5463Z"/><polygon class="cls-2" points="5866.6 6774.23 5847.72 6765.62 6182.3 6032.39 6189.14 6026.65 6197.9 6028.33 6756.74 6439.09 6744.44 6455.81 6195.89 6052.63 5866.6 6774.23 5866.6 6774.23"/><path class="cls-2" d="M5353.41,5370.35l-7.47-3.18-2.22-10.9,270-707.41-773.43-528,11.71-17.15,773.65,528.2,834-709.93,12.16-.95,4.67,11.27L6201.85,5077.47l-6.76,7.41L5356.75,5369.8l-3.34.55Zm281.72-719.26L5371,5343l812-276,265.9-1108.68-813.76,692.71Z"/><polygon class="cls-2" points="6185.46 5083.31 5620.1 4653.16 5632.67 4636.64 6198.03 5066.79 6185.46 5083.31 6185.46 5083.31"/><path class="cls-2" d="M4744,6047.08l-2.92-.42-7.33-8.27L4431.56,4210.21l6-11.19,12.34,3L5316.4,5296.5,4836.57,4116.14l.7-9.21,7.76-5,1581.07-178L5188.73,3396.16l8.14-19.11,1243.19,530.26-736.14-1176-1.18-8.39,5.46-6.47,908.85-438.95,6.77-.78,1474.24,319.05,8.18,9.66-7.24,10.38-696,220.05-9-1.36-773.31-535.67-893,431.28L6472.38,3919.8,8030,4014.66l8.8,6-1.14,10.6-629.12,834.4-323.4,576.95-13,4.53-870-356.62V6036.7l-5.9,9.36-11-1.29-830.69-670.54-602.81,669.41-7.71,3.44Zm618-693.5L6181.37,6015V5075.05l4.59-8.62,9.73-1,875.85,359,319.25-569.56.77-1.18,617.9-819.51-1542.78-94L4861,4121,5362,5353.58ZM4458.6,4246.45l292.14,1767.26,589.09-654.17L4458.6,4246.45ZM6670.39,2308l731.18,506.49,653.9-206.73L6670.39,2308Z"/><polygon class="cls-2" points="6197.91 5083.41 6185.59 5066.69 6954.48 4499.8 6967.13 4500.05 7406.34 4851.87 7393.36 4868.08 6960.37 4521.25 6197.91 5083.41 6197.91 5083.41"/><path class="cls-2" d="M6960.64,4518.54l-7.9-3.64-494.22-578.32-2.13-9.45L6463,3920l2104.68-739.33,11.61,3.38.54,12.07-541.7,834.51-4.43,3.81L6964.92,4517.62l-4.28.92Zm-476.49-583.93,479.32,560.87,1058.87-478.67,523.47-806.41L6484.15,3934.61Z"/><path class="cls-2" d="M6466.41,3940.22l-4-.82-6.31-10.54,154.76-1638.8L6205.3,1786.24l16.17-13,396.17,492.18,240.59-736.74,7.12-6.79,9.58,2.2L8099.77,2595.51H9108.08l9.5,6.21-1.86,11.2-537,584.61-10.73,2.89L7403.33,2837.9l-929,1098.64-7.93,3.68ZM6631.8,2289,6479.86,3897.85l912.06-1078.61,11-3.21,1165,362.61,516.54-562.36H8095.87l-6.84-2.57L6873.09,1550.05,6631.8,2289Z"/><polygon class="cls-3" points="9387.46 1982.24 9108.08 2605.9 8095.87 2605.9 9387.46 1982.24 9387.46 1982.24"/><polygon class="cls-3" points="8305.6 2244.02 9380.5 941.89 9779.85 941.89 9759.35 1500.57 8305.6 2244.02 8305.6 2244.02"/><line class="cls-3" x1="8305.6" y1="2244.02" x2="9779.85" y2="941.89"/><polygon class="cls-3" points="7052.57 1440.88 6539.03 898.2 6539.03 767 6749.27 767 7052.57 1440.88 7052.57 1440.88"/><line class="cls-3" x1="6539.03" y1="767" x2="7052.57" y2="1440.88"/><polygon class="cls-2" points="9558.44 1934.76 9894.94 1616.32 9976.3 1616.32 9976.3 1746.69 9558.44 1934.76 9558.44 1934.76"/><line class="cls-2" x1="9976.3" y1="1616.32" x2="9558.44" y2="1934.76"/><path class="cls-4" d="M6863.82,1523.34l-323.3-94.17-5-1.14-319.88-72.88-12.61-2.81v424.8l-499,943-465,591-54.35,69.09-.72.94-345,722.2-403.82,96.14-520.21,867-524.31,180.18-104.6,36,308.67,289.72-12.41,32.76-226.59,597.4-1.1,2.8-3.32,3.17-549.48,526.12-350.56,335.61-2.08,2-77.82,285.3-95.51,350.2-448.37,436.89-300.57,292.89-1,.93-520,866.62L486.82,9835.88l14.85,14.53L1003,9337.68l17.08-17.44,1570.12-628.86,646.58,501.45-41.13,650.31-.1,2.08,20.71,1.14.16-3.22,28.65-631.88L3792,9843.14l162.89,156.16,362.71-797,87.78-192.9,8.52-18.69L4380,8996,3263.38,9170.47l-31.31,4.88-.78,13.86-4.56-14.81L2745,8811l-150.07-143.85-37.43,15L1039,9290.34l21.33-35.56,478.83-798.15,3.17-5.24,12.77-12.46,211.13-205.67,514.08-500.9,8.05-7.84,4-3.89,2.08-2,3.48-12.71.93-3.43L2406.94,7306l57.46-210.87,3.27-11.94,6.75-6.49,268.7-257.22,603.68-578,11.32-10.8,12.51-12,1.71-1.61,3.11-8.2,3.85-10.17,233.44-615.47,6.23-16.46-14.22-13.34-23.52-22.11-255.87-240.2,77.24-26.53,494.52-170,31.71-10.9,5.82-9.65,501.52-835.89,12.3-20.5,11.58-2.76,379.89-90.48,4.2-1,9.29-2.24,6-12.46,4.2-8.87,334.26-699.77,3.79-7.95,7.68-9.76,41.27-52.48,455.11-578.35,6-7.73,9.13-11.58.57-.73,15.27-28.81,4.82-9.13,473.65-895,5.5-10.38,9.76-3.74,95.52-36.28,526-200.12,23.82-9.09,2.5-11.36ZM4379.07,9017.18,4239,9324.91l-290.86,639.14L3822,9843.14l-569.45-647.68-.65-2.15ZM6343.15,1720.24,6223.75,1765v-386.8l287.33,70.4L6848,1531.13Z"/><polygon class="cls-5" points="6090.98 1103.94 6176.34 1247.98 6517.77 1336 6240.92 1103.94 6090.98 1103.94 6090.98 1103.94"/><line class="cls-5" x1="6090.98" y1="1103.94" x2="6517.77" y2="1336"/><polygon class="cls-3" points="8745.53 1406.75 8956.86 552.97 9165.55 568.8 9215.66 683.06 8745.53 1406.75 8745.53 1406.75"/><line class="cls-3" x1="9165.55" y1="568.8" x2="8745.53" y2="1406.75"/><polygon class="cls-3" points="9383.99 722.62 9487.22 475.5 9544.34 508.53 9537.17 580.6 9383.99 722.62 9383.99 722.62"/><polygon class="cls-3" points="9940.84 974.04 9937.42 888.97 9958.31 890.82 9965.92 912.55 9940.84 974.04 9940.84 974.04"/><polygon class="cls-6" points="8187.39 1904.04 8111.2 1728.23 8117.67 405.53 8248.24 558.03 8187.39 1904.04 8187.39 1904.04"/><polyline class="cls-6" points="8187.39 1904.04 8320.22 1827.5 8684.29 581.96 8431.72 390.63 8117.67 405.53"/><line class="cls-6" x1="8248.24" y1="558.03" x2="8684.29" y2="581.96"/><polygon class="cls-3" points="7672.44 178.44 7770.65 274.29 7933.45 751.13 7831.73 855.35 7772.44 848.36 7599.33 253.34 7672.44 178.44 7672.44 178.44"/><line class="cls-3" x1="7831.73" y1="855.35" x2="7672.44" y2="178.44"/><polygon class="cls-4" points="8082.09 2455.7 7974.41 2177.42 7634.02 2049.38 8082.09 2455.7 8082.09 2455.7"/><polygon class="cls-7" points="7236 1266.28 7231.59 1412.43 7391.23 1649.72 7236 1266.28 7236 1266.28"/><polygon class="cls-3" points="7421.79 1288.43 7961.83 2007.05 7831.73 1428.03 7399.39 908.95 7421.79 1288.43 7421.79 1288.43"/><line class="cls-3" x1="7399.39" y1="908.95" x2="7961.83" y2="2007.05"/><polyline class="cls-8" points="1014.18 9311.44 1850.07 9239.47 1300.5 9816.41"/><path class="cls-4" d="M1726.66,9992.06l-3.2-.5h0l-.07,0h0l-.49-.18-424.15-164.48L494.6,9853.53l-.69-20.75L1300.16,9806l4.1.7,414.26,160.65,121.31-729.62,4-6.58L2586.3,8671h0l6.79-2.08,8.66,5.53L3215.08,9841l-.06,9.78-8.18,5.39L1727.73,9992l-1.07,0Zm864.85-1292.5-844.18,1269.8,1442.14-132.5-598-1137.3Zm-731.87,545.7-114.78,690.3,805.33-1211.35-690.55,521.05Z"/><polygon class="cls-2" points="3949.66 9991.9 3204.03 9855.99 3207.75 9835.56 3953.38 9971.47 3949.66 9991.9 3949.66 9991.9"/><polygon class="cls-2" points="3247.22 9185.8 3226.99 9181.1 3418.69 8354.63 2282.08 7723.42 2292.16 7705.27 3435.62 8340.27 3440.69 8351.69 3247.22 9185.8 3247.22 9185.8"/><polygon class="cls-3" points="6870.16 162.09 6941.02 141.43 6942.51 44.4 6746.28 22.3 6813.29 128.19 6870.16 162.09"/><polygon class="cls-3" points="6959.53 761.38 7253.47 278.41 6818.98 426.83 6959.53 761.38"/><polygon class="cls-9" points="5475.18 7713.67 5380.34 7807.68 5001.75 8182.95 4988.35 8196.19 5322.98 7379.05 5324.8 7383.04 5328.17 7390.47 5328.17 7390.52 5329.62 7393.63 5475.18 7713.67"/><polygon class="cls-9" points="5840.49 6787.72 5838.98 6791.66 5836.49 6798.1 5818.01 6846.12 5812.56 6860.34 5477.1 7732.51 5329.62 7414.4 5328.17 7411.28 5328.17 7411.23 5356.98 7325.68 5357.08 7325.42 5358.48 7321.11 5368.19 7292.35 5812.66 6817.46 5832.96 6795.77 5836.34 6792.13 5840.49 6787.72"/><polygon class="cls-10" points="30.59 9952.62 197.65 9941.38 430.16 9676.31 98.2 9818.79 30.59 9952.62 30.59 9952.62"/><polygon class="cls-11" points="837.16 9249.78 912.24 9185.06 957.74 8996.59 837.16 9249.78 837.16 9249.78"/><polygon class="cls-3" points="107.84 9644.62 298.18 9572.19 153.44 9467.53 107.84 9644.62"/><polygon class="cls-2" points="398.73 9453.81 633.11 9265.23 656.07 9466.14 398.73 9453.81 398.73 9453.81"/></g></g></svg>